<svg xmlns="http://www.w3.org/2000/svg" width="29" height="29" viewBox="0 0 29 29">
  <g id="aito-Icon" transform="translate(199 1253)">
    <g id="auto-Icon" transform="translate(2 2)">
      <g id="Group_9" data-name="Group 9" transform="translate(-258.521 -1281)">
        <path id="Path_18" data-name="Path 18" d="M221.249,244.987l.268-3.492a.454.454,0,0,0-.458-.5H219.2a.453.453,0,0,0-.459.5l.246,3.506a1.556,1.556,0,0,1,.257-.261.979.979,0,1,1,1.76.006A1.7,1.7,0,0,1,221.249,244.987Z" transform="translate(-148.479 -201.214)" fill="#fff"/>
        <path id="Path_19" data-name="Path 19" d="M102.209,227.95a.531.531,0,0,0,.131.35l0,0a.532.532,0,1,0-.136-.355Zm-5.1,1.227c-.005-.372-.011-.834-.017-1.307a4.558,4.558,0,0,0-.283,1.307ZM98.569,224h.782v.335h-.782Zm3.822,9.535h.7a.138.138,0,0,0,.134-.145v-2.715a3.818,3.818,0,0,1-.968,0v.454c0,.015.005.031.005.048s-.005.031-.005.046v2.164a.138.138,0,0,0,.134.145Zm-4.157-1.654v-.506a1.945,1.945,0,0,1-.41-.021,1.183,1.183,0,0,1-.521-.373v.9c0,.079.083.127.162.127h.611A.145.145,0,0,0,98.233,231.881ZM102.1,230.2a3.555,3.555,0,0,0,.629.057,3.657,3.657,0,0,0,.654-.06.222.222,0,0,1,.073-.014,3.825,3.825,0,0,0,.664-.2q-.118-.287-.265-.562a.222.222,0,0,1-.033-.06,2.2,2.2,0,0,0-.482-.642.977.977,0,0,1-1.2,0,3.529,3.529,0,0,0-.768,1.27,3.515,3.515,0,0,0,.659.2A.223.223,0,0,1,102.1,230.2Zm6.043,1.677V231a.957.957,0,0,1-.468.347,2.064,2.064,0,0,1-.426.024v.508a.121.121,0,0,0,.132.127H108A.128.128,0,0,0,108.141,231.881Zm.539-2.7a4.591,4.591,0,0,0-.289-1.315c-.007.475-.013.942-.019,1.315Z" transform="translate(-31.088 -184.848)" fill="#fff"/>
        <path id="Path_20" data-name="Path 20" d="M115.3,44.517a.226.226,0,0,1,.006.052.222.222,0,0,1-.005.047c.007.558.013.932.014.968a.582.582,0,0,0,.374.489c.255.015,2.332.028,3.86.033V45.75a2.958,2.958,0,0,1-.826-.3.225.225,0,0,1-.1-.269,6.964,6.964,0,0,1,.32-.742l-.291-4.126a.9.9,0,0,1,.9-.977h1.854a.9.9,0,0,1,.9.977L122,44.39a6.659,6.659,0,0,1,.354.791.226.226,0,0,1-.11.274,4,4,0,0,1-.831.292v.36c1.527-.006,3.607-.02,3.867-.036a.574.574,0,0,0,.363-.489c0-.037.009-.408.017-.961a.222.222,0,0,1,0-.108c.009-.58.02-1.334.03-2.108a.229.229,0,0,1,0-.027c.021-1.544.041-3.157.041-3.6,0-.814-.133-2.163-.25-3.353-.07-.709-.135-1.379-.167-1.867a1.5,1.5,0,0,0-1.343-1.371l-.473-.033c-.907-.065-2.149-.153-3.091-.153-.926,0-2.047.084-2.866.144l-.549.04a1.5,1.5,0,0,0-1.343,1.373c-.031.486-.1,1.152-.167,1.858-.116,1.18-.248,2.518-.249,3.325C115.235,39.436,115.276,42.772,115.3,44.517Zm2.275-4.881a.3.3,0,0,1-.3.3h-1.119a.3.3,0,0,1-.3-.3V39a.3.3,0,0,1,.3-.3h1.119a.3.3,0,0,1,.3.3Zm7.561,0a.3.3,0,0,1-.3.3h-1.119a.3.3,0,0,1-.3-.3V39a.3.3,0,0,1,.3-.3h1.119a.3.3,0,0,1,.3.3Zm-9.377-2.422.257-3.387a1.03,1.03,0,0,1,1.016-.934h6.882a1.023,1.023,0,0,1,1.009.934l.251,3.39v0a.824.824,0,0,1-.23.683.882.882,0,0,1-.662.283h-7.619a.892.892,0,0,1-.9-.968Z" transform="translate(-48.826 0)" fill="#fff"/>
        <path id="Path_21" data-name="Path 21" d="M67.836,72.4h7.619a.439.439,0,0,0,.333-.141.368.368,0,0,0,.111-.348h0l-.25-3.386A.575.575,0,0,0,75.086,68H68.2a.582.582,0,0,0-.57.521l-.257,3.39a.445.445,0,0,0,.118.345A.453.453,0,0,0,67.836,72.4Zm7.207,1.415h.782v.335h-.782ZM77.054,71.8a.223.223,0,0,0,.166-.074l.67-.745a.224.224,0,0,0,.054-.108l.191-1.021a.776.776,0,1,0-.444-.057l-.175.934-.628.7a.223.223,0,0,0,.166.373ZM65.17,69.854l.191,1.021a.224.224,0,0,0,.054.108l.67.745a.223.223,0,1,0,.332-.3l-.628-.7-.175-.934a.776.776,0,1,0-.444.058Z" transform="translate(0 -34.659)" fill="#fff"/>
      </g>
    </g>
    <g id="auto-Icon-2" data-name="auto-Icon">
      <g id="Group_16" data-name="Group 16">
        <circle id="Ellipse_8" data-name="Ellipse 8" cx="14.5" cy="14.5" r="14.5" transform="translate(-199 -1253)" fill="#f90"/>
        <g id="Group_15" data-name="Group 15" transform="translate(-256.153 -1278.844)">
          <path id="Path_18-2" data-name="Path 18" d="M221.249,244.987l.268-3.492a.454.454,0,0,0-.458-.5H219.2a.453.453,0,0,0-.459.5l.246,3.506a1.556,1.556,0,0,1,.257-.261.979.979,0,1,1,1.76.006A1.7,1.7,0,0,1,221.249,244.987Z" transform="translate(-148.479 -201.214)" fill="#fff"/>
          <path id="Path_19-2" data-name="Path 19" d="M102.209,227.95a.531.531,0,0,0,.131.35l0,0a.532.532,0,1,0-.136-.355Zm-5.1,1.227c-.005-.372-.011-.834-.017-1.307a4.558,4.558,0,0,0-.283,1.307ZM98.569,224h.782v.335h-.782Zm3.822,9.535h.7a.138.138,0,0,0,.134-.145v-2.715a3.818,3.818,0,0,1-.968,0v.454c0,.015.005.031.005.048s-.005.031-.005.046v2.164a.138.138,0,0,0,.134.145Zm-4.157-1.654v-.506a1.945,1.945,0,0,1-.41-.021,1.183,1.183,0,0,1-.521-.373v.9c0,.079.083.127.162.127h.611A.145.145,0,0,0,98.233,231.881ZM102.1,230.2a3.555,3.555,0,0,0,.629.057,3.657,3.657,0,0,0,.654-.06.222.222,0,0,1,.073-.014,3.825,3.825,0,0,0,.664-.2q-.118-.287-.265-.562a.222.222,0,0,1-.033-.06,2.2,2.2,0,0,0-.482-.642.977.977,0,0,1-1.2,0,3.529,3.529,0,0,0-.768,1.27,3.515,3.515,0,0,0,.659.2A.223.223,0,0,1,102.1,230.2Zm6.043,1.677V231a.957.957,0,0,1-.468.347,2.064,2.064,0,0,1-.426.024v.508a.121.121,0,0,0,.132.127H108A.128.128,0,0,0,108.141,231.881Zm.539-2.7a4.591,4.591,0,0,0-.289-1.315c-.007.475-.013.942-.019,1.315Z" transform="translate(-31.088 -184.848)" fill="#fff"/>
          <path id="Path_20-2" data-name="Path 20" d="M115.3,44.517a.226.226,0,0,1,.006.052.222.222,0,0,1-.005.047c.007.558.013.932.014.968a.582.582,0,0,0,.374.489c.255.015,2.332.028,3.86.033V45.75a2.958,2.958,0,0,1-.826-.3.225.225,0,0,1-.1-.269,6.964,6.964,0,0,1,.32-.742l-.291-4.126a.9.9,0,0,1,.9-.977h1.854a.9.9,0,0,1,.9.977L122,44.39a6.659,6.659,0,0,1,.354.791.226.226,0,0,1-.11.274,4,4,0,0,1-.831.292v.36c1.527-.006,3.607-.02,3.867-.036a.574.574,0,0,0,.363-.489c0-.037.009-.408.017-.961a.222.222,0,0,1,0-.108c.009-.58.02-1.334.03-2.108a.229.229,0,0,1,0-.027c.021-1.544.041-3.157.041-3.6,0-.814-.133-2.163-.25-3.353-.07-.709-.135-1.379-.167-1.867a1.5,1.5,0,0,0-1.343-1.371l-.473-.033c-.907-.065-2.149-.153-3.091-.153-.926,0-2.047.084-2.866.144l-.549.04a1.5,1.5,0,0,0-1.343,1.373c-.031.486-.1,1.152-.167,1.858-.116,1.18-.248,2.518-.249,3.325C115.235,39.436,115.276,42.772,115.3,44.517Zm2.275-4.881a.3.3,0,0,1-.3.3h-1.119a.3.3,0,0,1-.3-.3V39a.3.3,0,0,1,.3-.3h1.119a.3.3,0,0,1,.3.3Zm7.561,0a.3.3,0,0,1-.3.3h-1.119a.3.3,0,0,1-.3-.3V39a.3.3,0,0,1,.3-.3h1.119a.3.3,0,0,1,.3.3Zm-9.377-2.422.257-3.387a1.03,1.03,0,0,1,1.016-.934h6.882a1.023,1.023,0,0,1,1.009.934l.251,3.39v0a.824.824,0,0,1-.23.683.882.882,0,0,1-.662.283h-7.619a.892.892,0,0,1-.9-.968Z" transform="translate(-48.826 0)" fill="#fff"/>
          <path id="Path_21-2" data-name="Path 21" d="M67.836,72.4h7.619a.439.439,0,0,0,.333-.141.368.368,0,0,0,.111-.348h0l-.25-3.386A.575.575,0,0,0,75.086,68H68.2a.582.582,0,0,0-.57.521l-.257,3.39a.445.445,0,0,0,.118.345A.453.453,0,0,0,67.836,72.4Zm7.207,1.415h.782v.335h-.782ZM77.054,71.8a.223.223,0,0,0,.166-.074l.67-.745a.224.224,0,0,0,.054-.108l.191-1.021a.776.776,0,1,0-.444-.057l-.175.934-.628.7a.223.223,0,0,0,.166.373ZM65.17,69.854l.191,1.021a.224.224,0,0,0,.054.108l.67.745a.223.223,0,1,0,.332-.3l-.628-.7-.175-.934a.776.776,0,1,0-.444.058Z" transform="translate(0 -34.659)" fill="#fff"/>
        </g>
      </g>
    </g>
  </g>
</svg>
