<svg xmlns="http://www.w3.org/2000/svg" width="40" height="40" viewBox="0 0 40 40">
  <g id="auto-Icon" transform="translate(199 1253)">
    <g id="auto-Icon-2" data-name="auto-Icon" transform="translate(2 2)">
      <g id="Group_9" data-name="Group 9" transform="translate(-258.521 -1281)">
        <path id="Path_18" data-name="Path 18" d="M221.249,244.987l.268-3.492a.454.454,0,0,0-.458-.5H219.2a.453.453,0,0,0-.459.5l.246,3.506a1.556,1.556,0,0,1,.257-.261.979.979,0,1,1,1.76.006A1.7,1.7,0,0,1,221.249,244.987Z" transform="translate(-148.479 -201.214)" fill="#fff"/>
        <path id="Path_19" data-name="Path 19" d="M102.209,227.95a.531.531,0,0,0,.131.35l0,0a.532.532,0,1,0-.136-.355Zm-5.1,1.227c-.005-.372-.011-.834-.017-1.307a4.558,4.558,0,0,0-.283,1.307ZM98.569,224h.782v.335h-.782Zm3.822,9.535h.7a.138.138,0,0,0,.134-.145v-2.715a3.818,3.818,0,0,1-.968,0v.454c0,.015.005.031.005.048s-.005.031-.005.046v2.164a.138.138,0,0,0,.134.145Zm-4.157-1.654v-.506a1.945,1.945,0,0,1-.41-.021,1.183,1.183,0,0,1-.521-.373v.9c0,.079.083.127.162.127h.611A.145.145,0,0,0,98.233,231.881ZM102.1,230.2a3.555,3.555,0,0,0,.629.057,3.657,3.657,0,0,0,.654-.06.222.222,0,0,1,.073-.014,3.825,3.825,0,0,0,.664-.2q-.118-.287-.265-.562a.222.222,0,0,1-.033-.06,2.2,2.2,0,0,0-.482-.642.977.977,0,0,1-1.2,0,3.529,3.529,0,0,0-.768,1.27,3.515,3.515,0,0,0,.659.2A.223.223,0,0,1,102.1,230.2Zm6.043,1.677V231a.957.957,0,0,1-.468.347,2.064,2.064,0,0,1-.426.024v.508a.121.121,0,0,0,.132.127H108A.128.128,0,0,0,108.141,231.881Zm.539-2.7a4.591,4.591,0,0,0-.289-1.315c-.007.475-.013.942-.019,1.315Z" transform="translate(-31.088 -184.848)" fill="#fff"/>
        <path id="Path_20" data-name="Path 20" d="M115.3,44.517a.226.226,0,0,1,.006.052.222.222,0,0,1-.005.047c.007.558.013.932.014.968a.582.582,0,0,0,.374.489c.255.015,2.332.028,3.86.033V45.75a2.958,2.958,0,0,1-.826-.3.225.225,0,0,1-.1-.269,6.964,6.964,0,0,1,.32-.742l-.291-4.126a.9.9,0,0,1,.9-.977h1.854a.9.9,0,0,1,.9.977L122,44.39a6.659,6.659,0,0,1,.354.791.226.226,0,0,1-.11.274,4,4,0,0,1-.831.292v.36c1.527-.006,3.607-.02,3.867-.036a.574.574,0,0,0,.363-.489c0-.037.009-.408.017-.961a.222.222,0,0,1,0-.108c.009-.58.02-1.334.03-2.108a.229.229,0,0,1,0-.027c.021-1.544.041-3.157.041-3.6,0-.814-.133-2.163-.25-3.353-.07-.709-.135-1.379-.167-1.867a1.5,1.5,0,0,0-1.343-1.371l-.473-.033c-.907-.065-2.149-.153-3.091-.153-.926,0-2.047.084-2.866.144l-.549.04a1.5,1.5,0,0,0-1.343,1.373c-.031.486-.1,1.152-.167,1.858-.116,1.18-.248,2.518-.249,3.325C115.235,39.436,115.276,42.772,115.3,44.517Zm2.275-4.881a.3.3,0,0,1-.3.3h-1.119a.3.3,0,0,1-.3-.3V39a.3.3,0,0,1,.3-.3h1.119a.3.3,0,0,1,.3.3Zm7.561,0a.3.3,0,0,1-.3.3h-1.119a.3.3,0,0,1-.3-.3V39a.3.3,0,0,1,.3-.3h1.119a.3.3,0,0,1,.3.3Zm-9.377-2.422.257-3.387a1.03,1.03,0,0,1,1.016-.934h6.882a1.023,1.023,0,0,1,1.009.934l.251,3.39v0a.824.824,0,0,1-.23.683.882.882,0,0,1-.662.283h-7.619a.892.892,0,0,1-.9-.968Z" transform="translate(-48.826 0)" fill="#fff"/>
        <path id="Path_21" data-name="Path 21" d="M67.836,72.4h7.619a.439.439,0,0,0,.333-.141.368.368,0,0,0,.111-.348h0l-.25-3.386A.575.575,0,0,0,75.086,68H68.2a.582.582,0,0,0-.57.521l-.257,3.39a.445.445,0,0,0,.118.345A.453.453,0,0,0,67.836,72.4Zm7.207,1.415h.782v.335h-.782ZM77.054,71.8a.223.223,0,0,0,.166-.074l.67-.745a.224.224,0,0,0,.054-.108l.191-1.021a.776.776,0,1,0-.444-.057l-.175.934-.628.7a.223.223,0,0,0,.166.373ZM65.17,69.854l.191,1.021a.224.224,0,0,0,.054.108l.67.745a.223.223,0,1,0,.332-.3l-.628-.7-.175-.934a.776.776,0,1,0-.444.058Z" transform="translate(0 -34.659)" fill="#fff"/>
      </g>
    </g>
    <g id="auto-Icon-3" data-name="auto-Icon">
      <g id="Group_16" data-name="Group 16">
        <circle id="Ellipse_8" data-name="Ellipse 8" cx="20" cy="20" r="20" transform="translate(-199 -1253)" fill="#ffb300"/>
        <g id="Group_15" data-name="Group 15" transform="translate(-252.521 -1275)">
          <path id="Path_18-2" data-name="Path 18" d="M221.865,245.967l.334-4.349a.565.565,0,0,0-.571-.619h-2.31a.565.565,0,0,0-.571.619l.307,4.368a1.94,1.94,0,0,1,.32-.325,1.219,1.219,0,1,1,2.193.008A2.113,2.113,0,0,1,221.865,245.967Z" transform="translate(-147.068 -199.301)" fill="#fff"/>
          <path id="Path_19-2" data-name="Path 19" d="M103.535,228.921a.662.662,0,0,0,.164.435l.006.006a.662.662,0,1,0-.169-.442Zm-6.35,1.528c-.006-.464-.013-1.039-.021-1.628a5.678,5.678,0,0,0-.353,1.628ZM99,224h.974v.418H99Zm4.761,11.879h.872a.172.172,0,0,0,.167-.181v-3.382a4.757,4.757,0,0,1-1.206,0v.566c0,.019.006.039.006.059s-.006.039-.006.058v2.7a.172.172,0,0,0,.167.181Zm-5.178-2.061v-.63a2.421,2.421,0,0,1-.511-.027,1.474,1.474,0,0,1-.649-.465v1.122c0,.1.1.158.2.158h.762A.18.18,0,0,0,98.583,233.818Zm4.815-2.089a4.428,4.428,0,0,0,.783.071,4.552,4.552,0,0,0,.814-.075.277.277,0,0,1,.091-.018,4.764,4.764,0,0,0,.827-.246q-.147-.358-.33-.7a.277.277,0,0,1-.041-.075,2.745,2.745,0,0,0-.6-.8,1.217,1.217,0,0,1-1.494,0,4.4,4.4,0,0,0-.957,1.582,4.379,4.379,0,0,0,.821.248A.277.277,0,0,1,103.4,231.728Zm7.528,2.089v-1.1a1.192,1.192,0,0,1-.583.433,2.57,2.57,0,0,1-.531.03v.633a.151.151,0,0,0,.164.158h.775A.16.16,0,0,0,110.926,233.818Zm.671-3.368a5.719,5.719,0,0,0-.36-1.638c-.008.592-.016,1.174-.023,1.638Z" transform="translate(-30.792 -183.091)" fill="#fff"/>
          <path id="Path_20-2" data-name="Path 20" d="M115.314,47.593a.282.282,0,0,1,.008.065.276.276,0,0,1-.006.059c.009.7.016,1.161.018,1.206a.725.725,0,0,0,.466.61c.318.019,2.906.035,4.808.041v-.444a3.685,3.685,0,0,1-1.028-.371.28.28,0,0,1-.129-.336,8.673,8.673,0,0,1,.4-.925l-.362-5.14a1.121,1.121,0,0,1,1.125-1.217h2.31a1.122,1.122,0,0,1,1.126,1.217l-.39,5.076a8.3,8.3,0,0,1,.441.985.282.282,0,0,1-.137.341,4.988,4.988,0,0,1-1.036.363v.449c1.9-.008,4.494-.025,4.818-.045a.716.716,0,0,0,.453-.609c0-.046.011-.508.021-1.2a.277.277,0,0,1,0-.135c.011-.722.024-1.662.038-2.626a.285.285,0,0,1,0-.033c.026-1.924.051-3.932.051-4.484,0-1.014-.165-2.695-.311-4.177-.087-.883-.169-1.717-.208-2.326a1.865,1.865,0,0,0-1.673-1.708l-.589-.041c-1.13-.08-2.677-.191-3.85-.191-1.153,0-2.551.1-3.571.18l-.684.05a1.871,1.871,0,0,0-1.674,1.71c-.039.605-.121,1.435-.208,2.314-.145,1.47-.309,3.137-.31,4.143C115.235,41.263,115.285,45.419,115.314,47.593Zm2.834-6.08a.37.37,0,0,1-.37.37h-1.394a.37.37,0,0,1-.37-.37v-.791a.37.37,0,0,1,.37-.37h1.394a.37.37,0,0,1,.37.37Zm9.419,0a.37.37,0,0,1-.37.37H125.8a.37.37,0,0,1-.37-.37v-.791a.37.37,0,0,1,.37-.37H127.2a.37.37,0,0,1,.37.37ZM115.886,38.5l.32-4.219a1.283,1.283,0,0,1,1.265-1.164h8.573a1.275,1.275,0,0,1,1.257,1.164l.312,4.224v0a1.026,1.026,0,0,1-.286.851,1.1,1.1,0,0,1-.824.352h-9.491a1.111,1.111,0,0,1-1.126-1.206Z" transform="translate(-48.362 0)" fill="#fff"/>
          <path id="Path_21-2" data-name="Path 21" d="M68.65,73.475h9.491a.547.547,0,0,0,.415-.175.458.458,0,0,0,.138-.434h0l-.312-4.219a.716.716,0,0,0-.7-.648H69.11a.725.725,0,0,0-.71.649l-.32,4.224a.555.555,0,0,0,.147.429A.564.564,0,0,0,68.65,73.475Zm8.977,1.763H78.6v.418h-.974Zm2.506-2.5a.278.278,0,0,0,.207-.092l.835-.928a.279.279,0,0,0,.067-.135l.238-1.272a.967.967,0,1,0-.553-.072L80.71,71.4l-.783.87a.278.278,0,0,0,.207.465ZM65.33,70.31l.238,1.272a.279.279,0,0,0,.067.135l.835.928a.278.278,0,1,0,.414-.372L66.1,71.4l-.218-1.164a.967.967,0,1,0-.553.072Z" transform="translate(0 -34.33)" fill="#fff"/>
        </g>
      </g>
    </g>
  </g>
</svg>
