<svg xmlns="http://www.w3.org/2000/svg" width="40" height="40" viewBox="0 0 40 40">
  <g id="bike-Icon" transform="translate(223 1284)">
    <g id="Group_19" data-name="Group 19">
      <circle id="Ellipse_6" data-name="Ellipse 6" cx="20" cy="20" r="20" transform="translate(-223 -1284)" fill="#ffb300"/>
      <g id="Group_7" data-name="Group 7" transform="translate(-209 -1274)">
        <path id="Path_15" data-name="Path 15" d="M25.61,115.476a1.977,1.977,0,1,1-3.954,0c0-.012,0-.023,0-.034l-.171-.133v.622h-.938a.953.953,0,0,0-.947.854L19.159,121a.953.953,0,0,0,.848,1.047.943.943,0,0,0,.1.005.953.953,0,0,0,.946-.854l.352-3.366h.7v.435H21.8v3.938H19.744v.511H21.8a.968.968,0,0,0,.925.938v2.656a.322.322,0,0,0,.321.321h1.112a.322.322,0,0,0,.321-.321v-2.656a.968.968,0,0,0,.924-.938h2.052v-.511H25.4v-3.938H25.09v-.435h.771l.352,3.366a.953.953,0,0,0,1.895-.2l-.441-4.219a.953.953,0,0,0-.947-.854H25.78v-.622l-.171.133c0,.011,0,.023,0,.034Zm-1.135,7.737v-1.92H22.721v1.92a.523.523,0,0,1-.48-.52v-1.829h2.714v1.829a.522.522,0,0,1-.48.52Z" transform="translate(-17.633 -106.155)" fill="#fff"/>
        <circle id="Ellipse_5" data-name="Ellipse 5" cx="1.786" cy="1.786" r="1.786" transform="translate(4.214)" fill="#fff"/>
        <path id="Path_16" data-name="Path 16" d="M.3,53.533a.3.3,0,1,0,0,.594H.5a.634.634,0,0,0,.847,0H2.769a1.48,1.48,0,0,1,.9.31l.376.292a1.961,1.961,0,0,1,.2-.6l-.211-.164a2.077,2.077,0,0,0-1.268-.434H1.618l.372-.238,1.4-.9a.635.635,0,0,0,.284-.433,1.654,1.654,0,0,1,.178-.543v2.146a2.289,2.289,0,0,1,.33.213l.188.146a1.975,1.975,0,0,1,3.257,0l.188-.146a2.289,2.289,0,0,1,.331-.213V51.421a1.65,1.65,0,0,1,.178.543.635.635,0,0,0,.284.433l1.4.9.372.238H9.231a2.078,2.078,0,0,0-1.268.434l-.211.164a1.961,1.961,0,0,1,.2.6l.376-.292a1.481,1.481,0,0,1,.9-.31H10.65a.634.634,0,0,0,.847,0H11.7a.3.3,0,1,0,0-.594h0l-.025-.238-.017-.169a.635.635,0,0,0-.289-.469L9.519,51.471a2.28,2.28,0,0,0-1.885-1.8v0a.615.615,0,0,0-.1-.009H4.466a.615.615,0,0,0-.1.009v0a2.28,2.28,0,0,0-1.885,1.8L.631,52.657a.635.635,0,0,0-.289.469l-.018.169L.3,53.533Z" transform="translate(0 -45.724)" fill="#fff"/>
        <path id="Path_17" data-name="Path 17" d="M56.1,96.253a1.68,1.68,0,1,0,1.68,1.68A1.68,1.68,0,0,0,56.1,96.253Zm0,.79a.89.89,0,1,1-.89.89A.891.891,0,0,1,56.1,97.043Z" transform="translate(-50.096 -88.612)" fill="#fff"/>
      </g>
    </g>
  </g>
</svg>
