<svg id="email-Icon" xmlns="http://www.w3.org/2000/svg" width="24.896" height="24.896" viewBox="0 0 24.896 24.896">
  <path id="Path_3" data-name="Path 3" d="M12.448,0A12.448,12.448,0,1,0,24.9,12.448,12.462,12.462,0,0,0,12.448,0Zm0,23.729A11.281,11.281,0,1,1,23.729,12.448,11.294,11.294,0,0,1,12.448,23.729ZM18.3,7.318H6.6A1.421,1.421,0,0,0,5.179,8.737v7.422A1.421,1.421,0,0,0,6.6,17.578H18.3a1.421,1.421,0,0,0,1.419-1.419V8.737A1.421,1.421,0,0,0,18.3,7.318Zm-.88,1.167-4.971,3.947L7.477,8.485Zm.88,7.926H6.6a.253.253,0,0,1-.252-.252V9.077l5.74,4.558a.583.583,0,0,0,.726,0l5.74-4.558v7.082a.253.253,0,0,1-.252.252Z" fill="#fff"/>
</svg>
