<svg xmlns="http://www.w3.org/2000/svg" width="25" height="25" viewBox="0 0 25 25">
  <g id="instagram-Icon" transform="translate(285 1257)">
    <circle id="Ellipse_4" data-name="Ellipse 4" cx="12.5" cy="12.5" r="12.5" transform="translate(-285 -1257)" fill="#fff"/>
    <g id="Group_6" data-name="Group 6" transform="translate(-279.223 -1251.223)">
      <path id="Path_9" data-name="Path 9" d="M45.817,36H39.724A3.724,3.724,0,0,0,36,39.724v6.094a3.724,3.724,0,0,0,3.724,3.724h6.094a3.724,3.724,0,0,0,3.724-3.724V39.724A3.724,3.724,0,0,0,45.817,36Zm2.539,9.282a3.074,3.074,0,0,1-3.074,3.074H40.259a3.074,3.074,0,0,1-3.074-3.074V40.259a3.074,3.074,0,0,1,3.074-3.074h5.024a3.074,3.074,0,0,1,3.074,3.074Z" transform="translate(-36 -36)"/>
      <path id="Path_10" data-name="Path 10" d="M61.539,51.525l-.032-.032-.027-.027a3.412,3.412,0,0,0-2.41-1,3.473,3.473,0,0,0-3.45,3.5,3.512,3.512,0,0,0,1.016,2.473,3.417,3.417,0,0,0,2.441,1.016,3.509,3.509,0,0,0,2.463-5.933Zm-2.47,4.739a2.3,2.3,0,1,1,2.263-2.3A2.3,2.3,0,0,1,59.069,56.264Zm4.474-5.955a.826.826,0,0,1-.821.833.814.814,0,0,1-.579-.242.834.834,0,0,1,.581-1.42.816.816,0,0,1,.523.19l.017.017a.516.516,0,0,1,.074.074l.019.02A.833.833,0,0,1,63.543,50.309Z" transform="translate(-52.299 -47.198)"/>
    </g>
  </g>
</svg>
