<svg id="location-Icon" xmlns="http://www.w3.org/2000/svg" width="24.9" height="24.9" viewBox="0 0 24.9 24.9">
  <path id="Path_4" data-name="Path 4" d="M12.45,0A12.45,12.45,0,1,0,24.9,12.45,12.464,12.464,0,0,0,12.45,0Zm0,23.733A11.283,11.283,0,1,1,23.733,12.45,11.3,11.3,0,0,1,12.45,23.733Zm0-18.8A5.681,5.681,0,0,0,6.776,10.61c0,2.331,2.789,6.106,5.219,9.135a.583.583,0,0,0,.91,0l.075-.094c2.544-3.169,5.144-6.721,5.144-9.041A5.681,5.681,0,0,0,12.45,4.936Zm0,13.51c-1.506-1.9-4.508-5.846-4.508-7.835a4.507,4.507,0,0,1,9.014,0C16.957,12.646,13.978,16.528,12.451,18.446Zm0-11.295a3.46,3.46,0,1,0,3.46,3.46A3.464,3.464,0,0,0,12.45,7.151Zm0,5.752a2.292,2.292,0,1,1,2.292-2.292A2.3,2.3,0,0,1,12.45,12.9Z" fill="#fff"/>
</svg>
