<svg xmlns="http://www.w3.org/2000/svg" width="40" height="40" viewBox="0 0 40 40">
  <g id="mini-Icon" transform="translate(199 1331)">
    <g id="mini-Icon-2" data-name="mini-Icon" transform="translate(-16 -44)">
      <circle id="Ellipse_7" data-name="Ellipse 7" cx="20" cy="20" r="20" transform="translate(-183 -1287)" fill="#ffb300"/>
    </g>
    <g id="Group_18" data-name="Group 18" transform="translate(-198.506 -1331.261)">
      <path id="Path_24" data-name="Path 24" d="M17.092,24.645h5.8a.667.667,0,0,1,.719.507l.223.958c.158.728-.546,1.152-1.285,1.152H17.434c-.741,0-1.444-.424-1.286-1.152l.225-.958a.666.666,0,0,1,.719-.507ZM26.833,23.4a.624.624,0,0,1,.578.563c.1.486.214,1.446-.327,1.763a8.657,8.657,0,0,1-1.879.566c-.479.115-.6-.335-.432-1.008a2.384,2.384,0,0,1,1.786-1.83A.656.656,0,0,1,26.833,23.4Zm-13.686,0a.662.662,0,0,1,.276.052,2.382,2.382,0,0,1,1.785,1.83c.168.673.046,1.123-.432,1.008a8.648,8.648,0,0,1-1.879-.566c-.541-.316-.426-1.277-.327-1.763a.621.621,0,0,1,.577-.562Zm.447-10.289H26.406a49.767,49.767,0,0,1,.455,6.3H13.139A49.767,49.767,0,0,1,13.594,13.108Zm1.055-2.847c-1.165,0-1.86.965-2.1,2.1a55.766,55.766,0,0,0-.682,6.584h-.538l.092-1.894a.335.335,0,0,0-.339-.36c-.613,0-1.423-.058-1.475.994l-.1,1.956A.335.335,0,0,0,9.846,20H11.8c-.094,1.738-.145,3.249-.145,3.935v3.817a1.525,1.525,0,0,0,.9,1.632v.81a.574.574,0,0,0,.576.576h1.637a.572.572,0,0,0,.578-.576v-.81h9.292v.81a.572.572,0,0,0,.578.576h1.637a.574.574,0,0,0,.576-.576v-.81a1.525,1.525,0,0,0,.9-1.632V23.938c0-.687-.051-2.2-.144-3.935h1.955a.333.333,0,0,0,.339-.358l-.095-1.956c-.053-1.052-.862-.994-1.475-.994a.336.336,0,0,0-.341.36l.093,1.894h-.538a55.765,55.765,0,0,0-.682-6.584c-.243-1.138-.938-2.1-2.1-2.1H14.649Z" transform="translate(0)" fill="#fff" fill-rule="evenodd"/>
    </g>
  </g>
</svg>
