<svg id="phone-Icon" xmlns="http://www.w3.org/2000/svg" width="24.9" height="24.9" viewBox="0 0 24.9 24.9">
  <path id="Path_1" data-name="Path 1" d="M114.706,109.4l-.009-.009,0,0-1.07-1.07a1.593,1.593,0,0,0-2.247-.005l-.006.006-.569.569-2.619-2.619.569-.569.006-.006a1.6,1.6,0,0,0-.005-2.247l-1.069-1.069-.006-.006a1.593,1.593,0,0,0-2.247,0l-.012.012-.491.491-.464.464a3.287,3.287,0,0,0-.5,3.4,9.754,9.754,0,0,0,2.475,3.895,8.335,8.335,0,0,0,5.338,2.708,2.691,2.691,0,0,0,1.956-.729l.609-.609.356-.356,0,0a1.6,1.6,0,0,0,.017-2.231l-.009-.011Zm-.8,1.447-.01.01-.35.35-.607.607a1.586,1.586,0,0,1-1.166.4,7.331,7.331,0,0,1-4.546-2.38,8.625,8.625,0,0,1-2.2-3.429,2.292,2.292,0,0,1,.22-2.284l.464-.464.5-.5.005-.006a.473.473,0,0,1,.665.006l1.073,1.073a.474.474,0,0,1,0,.669h0l-.965.965a.56.56,0,0,0,0,.792l3.411,3.411a.56.56,0,0,0,.792,0l.958-.959.01-.01a.473.473,0,0,1,.666,0l1.07,1.07,0,0,0,0A.474.474,0,0,1,113.909,110.849Zm0,0" transform="translate(-96.937 -95.234)" fill="#fff"/>
  <path id="Path_2" data-name="Path 2" d="M21.254,3.646A12.45,12.45,0,0,0,3.646,21.254,12.45,12.45,0,0,0,21.254,3.646Zm-8.8,19.795A10.991,10.991,0,1,1,23.441,12.45,11,11,0,0,1,12.45,23.441Zm0,0" transform="translate(0 0)" fill="#fff"/>
</svg>
