<svg xmlns="http://www.w3.org/2000/svg" width="40" height="40" viewBox="0 0 40 40">
  <g id="pickups-Icon4" transform="translate(-39 1344)">
    <g id="pickups-Icon3" transform="translate(27 -4)">
      <g id="pickups-Icon2" transform="translate(173 -81)">
        <g id="suv-Icon">
          <g id="suv-Icon-2" data-name="suv-Icon" transform="translate(-161 -1259)">
            <circle id="Ellipse_9" data-name="Ellipse 9" cx="20" cy="20" r="20" fill="#ffb300"/>
          </g>
        </g>
      </g>
    </g>
    <g id="Group_24" data-name="Group 24" transform="translate(35.782 -1340)">
      <path id="Path_33" data-name="Path 33" d="M31.476,29.25c-.474-1.412-2.365-2.3-3.714-2.888-.528-.231-1.99-.624-2.166-1.289a1.376,1.376,0,0,1,0-.682,1.318,1.318,0,0,1-.249.025h-.878a1.271,1.271,0,1,1,0-2.541h.878a1.267,1.267,0,0,1,.787.273,5.653,5.653,0,0,0,.932-.2,7.88,7.88,0,0,0,.751-2.6c.287-3.545-1.886-5.619-5-5.26a4.176,4.176,0,0,0-3.765,4.125,7.491,7.491,0,0,0,1.547,5.055c.382.525.784.863.722,1.5-.072.748-.872.957-1.444,1.187a16.53,16.53,0,0,0-1.753.877c-1.188.656-2.492,1.446-2.785,2.527-.649,2.4,1.543,3.121,3.352,3.456a27.091,27.091,0,0,0,4.744.309c2.605,0,7.29-.1,8.045-2.063A3.261,3.261,0,0,0,31.476,29.25Z" transform="translate(0 -6.916)" fill="#fff"/>
      <path id="Path_34" data-name="Path 34" d="M28.772,15.87a.664.664,0,0,0-.555-.3h-.878a.662.662,0,1,0,0,1.323h.878a.656.656,0,0,0,.584-.358,5.94,5.94,0,0,0,3.038-1.023,1.091,1.091,0,0,0,.594.176h.055a1.1,1.1,0,0,0,1.1-1.106V12.374a1.1,1.1,0,0,0-.63-1,6.686,6.686,0,0,0-13.358,0,1.1,1.1,0,0,0-.63,1v2.207a1.1,1.1,0,0,0,1.1,1.106h.056a1.1,1.1,0,0,0,1.1-1.105V12.374a1.1,1.1,0,0,0-.614-.988,5.668,5.668,0,0,1,11.319,0,1.1,1.1,0,0,0-.614.988v2.207a1.11,1.11,0,0,0,.079.41,5.408,5.408,0,0,1-2.635.879Z" transform="translate(-2.871)" fill="#fff"/>
    </g>
  </g>
</svg>
