<svg xmlns="http://www.w3.org/2000/svg" width="40" height="40" viewBox="0 0 40 40">
  <g id="pickups-Icon1" transform="translate(57 1277)">
    <g id="Group_21" data-name="Group 21">
      <circle id="Ellipse_11" data-name="Ellipse 11" cx="20" cy="20" r="20" transform="translate(-57 -1277)" fill="#ffb300"/>
    </g>
    <g id="Group_22" data-name="Group 22" transform="translate(-49 -1379.333)">
      <path id="Path_29" data-name="Path 29" d="M1.922,124.945H16.377v2H5.861a2.243,2.243,0,0,0-4.2-.038.957.957,0,0,1-.692-.919V125.9a.957.957,0,0,1,.957-.958Zm3.425,2.542a1.67,1.67,0,1,1-1.67-1.67A1.672,1.672,0,0,1,5.347,127.487Zm-.511,0a1.159,1.159,0,1,0-1.159,1.159,1.161,1.161,0,0,0,1.159-1.159Zm17.39,0a1.67,1.67,0,1,1-1.67-1.67A1.672,1.672,0,0,1,22.227,127.487Zm-.511,0a1.159,1.159,0,1,0-1.159,1.159A1.161,1.161,0,0,0,21.716,127.487Zm2.946-4.8v3.776a.319.319,0,0,1-.319.319H22.675a2.243,2.243,0,0,0-4.088,0H17.462a.319.319,0,0,1-.319-.319v-7.583a.319.319,0,0,1,.319-.319h4.2a.784.784,0,0,1,.638.319l2.361,3.807Zm-1.489-.83-1.436-2.383c-.111-.205-.247-.319-.734-.319H18.4a.319.319,0,0,0-.319.319v2.383a.319.319,0,0,0,.319.319h4.456a.319.319,0,0,0,.319-.319Zm1.244,3.627a.3.3,0,0,0-.6,0v.564a.3.3,0,0,0,.6,0ZM0,124.373H16.377v-9.04H0Z" transform="translate(0 0)" fill="#fff"/>
    </g>
  </g>
</svg>
