<svg xmlns="http://www.w3.org/2000/svg" width="40" height="40" viewBox="0 0 40 40">
  <g id="pickups-Icon3" transform="translate(-12 1340)">
    <g id="pickups-Icon2" transform="translate(173 -81)">
      <g id="suv-Icon">
        <g id="suv-Icon-2" data-name="suv-Icon" transform="translate(-161 -1259)">
          <circle id="Ellipse_9" data-name="Ellipse 9" cx="20" cy="20" r="20" fill="#ffb300"/>
        </g>
      </g>
    </g>
    <g id="Group_23" data-name="Group 23" transform="translate(21.999 -1327.487)">
      <path id="Path_30" data-name="Path 30" d="M22.388,37.59l.191-.431a.677.677,0,1,0-1.238-.548l-.253.573a1.192,1.192,0,0,1,.355-.055A1.21,1.21,0,0,1,22.388,37.59Zm-2.557,2.432-.56,1.264a.677.677,0,0,0,1.237.548l.822-1.856,6.44,2.851.426-.962L22.242,39.23a1.2,1.2,0,0,1-.374.227,11.978,11.978,0,0,1-2.037.564Zm-8-3.591L9.652,35a.6.6,0,1,0-.66,1.006L10.96,37.3A3,3,0,0,1,11.829,36.431Z" transform="translate(-7.66 -34.667)" fill="#fff"/>
      <path id="Path_31" data-name="Path 31" d="M28.4,50a13.761,13.761,0,0,1-2.288-.526h0l-.015,0a1.2,1.2,0,1,1,.8-2.27l.012,0,.038.012c.046.015.113.036.2.062q.4.113.8.2l.218.044a1.85,1.85,0,0,0-1.572-1.345A2.754,2.754,0,0,0,24.027,48.9a13.293,13.293,0,0,0,.866,6.658c.017.038.035.075.052.111l3.488-4.917q-.02-.374-.033-.749Zm-1.013,7.111h5.548l3.281,4.4a1.5,1.5,0,0,0,2.412-1.8L34.9,54.713a1.5,1.5,0,0,0-1.206-.605H28.9a12.127,12.127,0,0,1-.3-1.511L25.7,56.68A2.209,2.209,0,0,0,27.387,57.115Z" transform="translate(-21.052 -44.592)" fill="#fff"/>
      <ellipse id="Ellipse_12" data-name="Ellipse 12" cx="2.706" cy="2.706" rx="2.706" ry="2.706" transform="matrix(0.227, -0.974, 0.974, 0.227, 3.868, 0.758)" fill="#fff"/>
      <path id="Path_32" data-name="Path 32" d="M6.844,55.631q-.412-.086-.816-.2-.105-.03-.209-.064l-.049-.016-.009,0a.962.962,0,0,0-.64,1.816,14.863,14.863,0,0,0,4.532.691,12.621,12.621,0,0,0,4.47-.779.962.962,0,1,0-.681-1.8,10.715,10.715,0,0,1-3.788.654,13.765,13.765,0,0,1-2.81-.3ZM2.387,67.289h8.321a.842.842,0,1,0,0-1.684H3.925l.588-.816.131-.181a.6.6,0,1,0-.976-.7l0,0L3,64.832,1.676,55.9a.842.842,0,0,0-1.666.247L1.554,66.57A.843.843,0,0,0,2.387,67.289ZM19.056,68.36l-1.648,2.658a.562.562,0,0,0,.954.592l1.648-2.658a.561.561,0,1,0-.954-.592Z" transform="translate(0 -52.509)" fill="#fff"/>
    </g>
  </g>
</svg>
