<svg xmlns="http://www.w3.org/2000/svg" width="40" height="40" viewBox="0 0 40 40">
  <g id="suv-Icon" transform="translate(161 1259)">
    <g id="suv-Icon-2" data-name="suv-Icon">
      <g id="suv-Icon-3" data-name="suv-Icon" transform="translate(-161 -1259)">
        <circle id="Ellipse_9" data-name="Ellipse 9" cx="20" cy="20" r="20" fill="#ffb300"/>
      </g>
    </g>
    <g id="Group_17" data-name="Group 17" transform="translate(-161.273 -1266.005)">
      <g id="Group_13" data-name="Group 13" transform="translate(8.273 17.005)">
        <path id="Path_22" data-name="Path 22" d="M31.515,29.738A1.319,1.319,0,1,1,30.2,31.058a1.319,1.319,0,0,1,1.319-1.319Zm-18.486,0a1.318,1.318,0,1,1-.933.386A1.319,1.319,0,0,1,13.029,29.738Zm4.2-3.7H27.316c.276,0,.338.377.212.742a1.846,1.846,0,0,1-1.662,1.285H18.68a1.846,1.846,0,0,1-1.663-1.285C16.89,26.416,16.953,26.039,17.23,26.039Zm14.222-.953a1.473,1.473,0,0,1,.2,0,1.055,1.055,0,0,1,1.007.777,1.489,1.489,0,0,1-1.321,1.9H29.992c-.956,0-1.2-.649-1.047-1.109A3.094,3.094,0,0,1,31.452,25.086Zm-18.359,0A3.1,3.1,0,0,1,15.6,26.656c.153.46-.092,1.109-1.048,1.109H13.212a1.488,1.488,0,0,1-1.321-1.9,1.054,1.054,0,0,1,1.006-.777A1.539,1.539,0,0,1,13.093,25.086ZM22.272,17.2c1.542,0,3.209.059,4.618.163a1.7,1.7,0,0,1,1.352.922l1.731,3.673s-4.419.475-7.7.475-7.7-.475-7.7-.475L16.3,18.288a1.706,1.706,0,0,1,1.354-.922C19.065,17.262,20.731,17.2,22.272,17.2Zm0-1.2a29.463,29.463,0,0,0-4.981.271,2.547,2.547,0,0,0-1.965,1.313l-1.747,3.293H11.327a.743.743,0,0,0-.671.983c.144.536.305.8,1.093.981l.728.169c-.286.384-.6.81-.922,1.235a5.782,5.782,0,0,0-1.281,3.209v3.859c0,.795.212,1.463.852,1.713v2.222a.779.779,0,0,0,.782.78h2.216a.78.78,0,0,0,.784-.78v-1.3a4.518,4.518,0,0,1,.273-1.645c.606-1.575,1.395-2.713,2.775-2.713h8.634c1.381,0,2.168,1.138,2.776,2.713a4.563,4.563,0,0,1,.273,1.645v1.3a.779.779,0,0,0,.782.78h2.219a.779.779,0,0,0,.782-.78V33.031c.638-.25.852-.919.852-1.713V27.459a5.793,5.793,0,0,0-1.282-3.209c-.324-.424-.636-.85-.922-1.235l.728-.169c.787-.181.949-.445,1.093-.981a.743.743,0,0,0-.671-.983H30.967l-1.749-3.293a2.542,2.542,0,0,0-1.963-1.313A29.484,29.484,0,0,0,22.272,16Z" transform="translate(-10.273 -16.005)" fill="#fff" fill-rule="evenodd"/>
        <path id="Path_23" data-name="Path 23" d="M28.843,58.682c-.917,0-1.343.683-1.862,2.037-.15.392-.113,1.093.255,1.285H39.084c.367-.192.4-.894.253-1.285-.518-1.354-.944-2.037-1.862-2.037Z" transform="translate(-21.161 -43.953)" fill="#fff" fill-rule="evenodd"/>
      </g>
    </g>
  </g>
</svg>
