<svg xmlns="http://www.w3.org/2000/svg" width="25.66" height="25.661" viewBox="0 0 25.66 25.661">
  <g id="twitter-Icon" transform="translate(0 -0.033)">
    <g id="Layer_2" data-name="Layer 2" transform="translate(0 0.033)">
      <g id="_04.Twitter" data-name="04.Twitter">
        <circle id="Ellipse_1" data-name="Ellipse 1" cx="12.83" cy="12.83" r="12.83" fill="#fff"/>
        <path id="Path_7" data-name="Path 7" d="M43.223,37.56a7.054,7.054,0,0,1-1.94.528,3.324,3.324,0,0,0,1.482-1.846,6.762,6.762,0,0,1-2.136.809,3.387,3.387,0,0,0-3.7-.825,3.339,3.339,0,0,0-2.13,3.108,3.425,3.425,0,0,0,.078.761A9.565,9.565,0,0,1,27.938,36.6a3.325,3.325,0,0,0,1.036,4.467,3.345,3.345,0,0,1-1.522-.412v.036a3.362,3.362,0,0,0,2.7,3.279,3.386,3.386,0,0,1-.883.109,3.029,3.029,0,0,1-.639-.056,3.4,3.4,0,0,0,3.148,2.326,6.809,6.809,0,0,1-4.171,1.424,6.134,6.134,0,0,1-.806-.046,9.607,9.607,0,0,0,14.76-8c0-.147,0-.29-.012-.432A6.669,6.669,0,0,0,43.223,37.56Z" transform="translate(-22.165 -29.795)"/>
      </g>
    </g>
  </g>
</svg>
