<svg xmlns="http://www.w3.org/2000/svg" width="57" height="57" viewBox="0 0 57 57">
  <g id="whatsapp_icon" transform="translate(0 1.17)">
    <g id="Layer_2" data-name="Layer 2" transform="translate(0 -0.713)">
      <g id="_09.whatsapp" data-name="09.whatsapp" transform="translate(0 0)">
        <circle id="Ellipse_10" data-name="Ellipse 10" cx="28.5" cy="28.5" r="28.5" transform="translate(0 -0.457)" fill="#29a71a"/>
        <g id="Group_20" data-name="Group 20" transform="translate(10.649 11.02)">
          <path id="Path_27" data-name="Path 27" d="M63.17,38.174a17.375,17.375,0,0,0-27.834,20.1l-1.843,8.95a.662.662,0,0,0,.105.519.672.672,0,0,0,.713.277l8.772-2.079A17.371,17.371,0,0,0,63.17,38.174ZM60.435,60A13.608,13.608,0,0,1,44.764,62.55l-1.223-.6-5.378,1.274.016-.067,1.114-5.413-.6-1.181a13.6,13.6,0,0,1,21.74-15.789.725.725,0,0,0,.07.07A13.6,13.6,0,0,1,60.435,60Z" transform="translate(-33.447 -33.024)" fill="#fff"/>
          <path id="Path_28" data-name="Path 28" d="M78.406,75.278A5.649,5.649,0,0,1,75.4,77.9c-2.292.554-5.811.019-10.189-4.063l-.054-.048c-3.849-3.569-4.849-6.54-4.607-8.9a5.631,5.631,0,0,1,2.187-3.337,1.251,1.251,0,0,1,1.958.449l1.417,3.184a1.245,1.245,0,0,1-.156,1.274l-.716.93a1.232,1.232,0,0,0-.111,1.375,13.386,13.386,0,0,0,2.429,2.7,14.179,14.179,0,0,0,3.365,2.41,1.216,1.216,0,0,0,1.334-.28l.831-.837a1.274,1.274,0,0,1,1.242-.318l3.365.955a1.274,1.274,0,0,1,.713,1.882Z" transform="translate(-51.896 -52.269)" fill="#fff"/>
        </g>
      </g>
    </g>
  </g>
</svg>
